<?xml version="1.0" encoding="iso-8859-1"?>
<!-- Generator: Adobe Illustrator 19.0.0, SVG Export Plug-In . SVG Version: 6.00 Build 0)  -->
<svg version="1.1" id="Capa_1" xmlns="http://www.w3.org/2000/svg" xmlns:xlink="http://www.w3.org/1999/xlink" x="0px" y="0px"
	 viewBox="0 0 512.002 512.002" style="enable-background:new 0 0 512.002 512.002;" xml:space="preserve">
<g transform="translate(0 -1)">
	<g>
		<g>
			<circle cx="146.289" cy="238.721" r="9.143"/>
			<circle cx="201.145" cy="293.577" r="9.143"/>
			<path d="M137.146,165.58c0,5.047,4.096,9.143,9.143,9.143c5.047-0.009,9.143-4.096,9.143-9.143s-4.096-9.143-9.143-9.143
				C141.242,156.437,137.146,160.533,137.146,165.58z"/>
			<circle cx="201.145" cy="83.295" r="9.143"/>
			<path d="M180.309,1.029c-37.074-1.079-68.278,27.538-70.399,64.566c10.715,1.198,21.083,4.498,30.527,9.7
				c4.388,2.459,5.961,8,3.52,12.407c-2.441,4.407-7.972,6.007-12.388,3.584c-19.821-10.962-43.976-10.633-63.487,0.878
				c-19.511,11.511-31.497,32.475-31.506,55.13c-0.027,8.274,1.573,16.466,4.718,24.128c10.185-3.84,20.973-5.824,31.853-5.842
				c5.047,0,9.143,4.096,9.143,9.143s-4.096,9.143-9.143,9.143c-11.657,0-23.149,2.807-33.499,8.201
				c-2.258,1.17-4.453,2.441-6.574,3.831c-1.152,0.759-2.24,1.582-3.346,2.395c-1.39,1.033-2.752,2.085-4.059,3.2
				c-1.189,1.015-2.35,2.057-3.465,3.145c-0.85,0.823-1.646,1.691-2.459,2.56c-2.066,2.213-3.995,4.553-5.778,7.003
				c-0.567,0.795-1.17,1.554-1.71,2.368c-0.933,1.399-1.792,2.862-2.633,4.334c-0.631,1.106-1.216,2.222-1.783,3.355
				c-0.677,1.353-1.381,2.697-1.975,4.096c-1.024,2.404-1.92,4.873-2.679,7.378c-0.311,1.006-0.53,2.048-0.795,3.072
				c-0.521,2.021-0.969,4.069-1.307,6.144c-0.155,0.96-0.32,1.92-0.439,2.889c-0.402,3.035-0.613,6.107-0.64,9.17
				c0.046,20.644,8.786,40.31,24.091,54.17c10.249-10.697,23.067-18.587,37.229-22.93c4.827-1.481,9.947,1.225,11.428,6.052
				c1.481,4.827-1.225,9.947-6.052,11.428c-13.504,4.151-25.389,12.37-34.02,23.552c-0.055,0.073-0.073,0.174-0.128,0.247
				c-6.638,8.558-11.108,18.596-13.037,29.247c-0.082,0.439-0.238,0.841-0.311,1.28c-0.613,3.712-0.914,7.47-0.914,11.236
				c-0.128,29.211,18.368,55.268,45.988,64.785c-0.101-1.783-0.274-3.547-0.274-5.358c-0.064-21.778,7.003-42.98,20.096-60.36
				c3.026-4.041,8.759-4.855,12.8-1.819c4.041,3.026,4.855,8.759,1.819,12.8c-14.08,18.788-19.474,42.696-14.811,65.709
				c0.091,0.457,0.219,0.896,0.32,1.344c0.466,2.112,0.987,4.197,1.609,6.244c0.192,0.622,0.421,1.225,0.622,1.838
				c0.622,1.865,1.28,3.721,2.03,5.531c0.247,0.603,0.512,1.189,0.777,1.783c0.795,1.801,1.646,3.575,2.56,5.303
				c0.293,0.539,0.585,1.079,0.878,1.609c0.987,1.755,2.03,3.474,3.136,5.156c0.302,0.448,0.585,0.905,0.896,1.353
				c1.198,1.746,2.469,3.429,3.794,5.074c0.274,0.338,0.53,0.686,0.814,1.024c1.509,1.801,3.081,3.538,4.736,5.211
				c0.128,0.137,0.256,0.283,0.393,0.421c3.62,3.602,7.57,6.866,11.785,9.746c0.64,0.43,1.298,0.814,1.947,1.225
				c1.435,0.923,2.871,1.819,4.361,2.651c0.914,0.512,1.856,0.969,2.789,1.445c1.28,0.658,2.578,1.298,3.895,1.883
				c1.042,0.466,2.103,0.896,3.163,1.317c1.289,0.503,2.578,0.978,3.895,1.426c1.097,0.366,2.213,0.722,3.328,1.051
				c1.362,0.393,2.752,0.741,4.151,1.07c1.088,0.256,2.167,0.521,3.273,0.731c1.6,0.302,3.227,0.53,4.855,0.741
				c0.933,0.128,1.847,0.283,2.789,0.375c2.596,0.247,5.211,0.402,7.872,0.402c45.43-0.055,82.239-36.863,82.284-82.293v-73.142
				h-74.787l-5.915,29.613c12.205,5.12,18.971,18.267,16.036,31.167c-2.935,12.909-14.72,21.833-27.94,21.165
				c-13.211-0.667-24.036-10.734-25.654-23.872c-1.618-13.129,6.436-25.526,19.099-29.385l6.446-32.265
				c1.728-8.539,9.216-14.683,17.929-14.701h74.787V302.72h-19.968c-4.452,12.599-17.335,20.151-30.5,17.892
				s-22.793-13.677-22.793-27.035c0-13.357,9.627-24.777,22.793-27.035s26.048,5.294,30.5,17.892h19.968v-36.571h-74.824
				c-4.453,12.599-17.335,20.151-30.5,17.892c-13.166-2.258-22.793-13.678-22.793-27.035s9.627-24.777,22.793-27.035
				c13.165-2.258,26.048,5.294,30.5,17.892h74.824v-72.044l-24.813,34.742c-3.447,4.8-9.006,7.652-14.921,7.643
				c-2.514,0.009-5.001-0.512-7.305-1.527l-33.197-14.573c-8.951,9.956-23.725,12.087-35.126,5.074s-16.155-21.174-11.3-33.645
				c4.855-12.471,17.929-19.684,31.067-17.152c13.138,2.533,22.592,14.098,22.454,27.483c0,0.457-0.11,0.887-0.137,1.335
				l33.581,14.738l39.698-55.569V92.438h-19.968c-4.452,12.599-17.335,20.151-30.5,17.892s-22.793-13.677-22.793-27.035
				s9.627-24.777,22.793-27.035c13.165-2.258,26.048,5.294,30.5,17.892h19.968v-4.571C246.886,32.49,217.401,2.108,180.309,1.029z"
				/>
			<path d="M492.541,359.003c-1.911-10.752-6.409-20.864-13.102-29.485c-0.064-0.082-0.073-0.192-0.137-0.283
				c-8.631-11.163-20.507-19.373-33.992-23.515c-4.827-1.481-7.534-6.601-6.052-11.428c1.481-4.827,6.601-7.534,11.428-6.052
				c14.162,4.343,26.98,12.233,37.229,22.93c15.296-13.86,24.045-33.526,24.082-54.17c-0.027-3.063-0.238-6.126-0.64-9.17
				c-0.119-0.978-0.283-1.929-0.439-2.889c-0.347-2.075-0.795-4.123-1.307-6.144c-0.265-1.024-0.485-2.066-0.795-3.072
				c-0.759-2.505-1.655-4.964-2.679-7.378c-0.594-1.399-1.289-2.743-1.975-4.096c-0.567-1.134-1.161-2.258-1.783-3.355
				c-0.832-1.472-1.701-2.926-2.633-4.334c-0.539-0.814-1.143-1.582-1.71-2.368c-1.783-2.45-3.712-4.791-5.778-7.003
				c-0.805-0.859-1.609-1.737-2.459-2.56c-1.115-1.088-2.276-2.13-3.465-3.145c-1.307-1.115-2.67-2.176-4.059-3.2
				c-1.106-0.823-2.194-1.637-3.346-2.395c-2.13-1.39-4.325-2.67-6.574-3.831c-10.35-5.376-21.833-8.192-33.499-8.192
				c-5.047,0-9.143-4.096-9.143-9.143s4.096-9.143,9.143-9.143c10.88,0.027,21.668,2.002,31.853,5.842
				c3.145-7.652,4.745-15.853,4.718-24.128c0-22.866-12.196-43.985-31.999-55.396c-19.794-11.438-44.187-11.447-63.99-0.027
				c-4.361,2.505-9.938,1.006-12.461-3.355c-2.523-4.361-1.051-9.938,3.3-12.48c9.774-5.614,20.608-9.161,31.807-10.404
				c-2.121-37.037-33.307-65.654-70.39-64.584c-37.083,1.07-66.568,31.442-66.55,68.534v86.856h29.083l5.924-29.613
				c-12.206-5.111-18.971-18.258-16.036-31.167c2.935-12.909,14.72-21.833,27.94-21.165c13.211,0.667,24.045,10.743,25.654,23.881
				c1.609,13.138-6.446,25.526-19.108,29.385l-6.446,32.265c-1.728,8.539-9.216,14.683-17.929,14.701h-29.083v45.713h19.968
				c4.453-12.599,17.335-20.151,30.5-17.892c13.165,2.258,22.793,13.677,22.793,27.035s-9.627,24.777-22.793,27.035
				c-13.165,2.258-26.048-5.303-30.5-17.892h-19.968v36.571h74.824c4.453-12.599,17.335-20.151,30.5-17.892
				c13.165,2.258,22.793,13.677,22.793,27.035s-9.627,24.777-22.793,27.035s-26.047-5.303-30.5-17.892h-74.824v72.044l24.813-34.742
				c5.047-7.022,14.299-9.563,22.226-6.116l33.197,14.573c8.951-9.956,23.725-12.087,35.126-5.074
				c11.401,7.013,16.155,21.174,11.3,33.645c-4.855,12.471-17.929,19.684-31.067,17.152s-22.592-14.098-22.454-27.483
				c0-0.466,0.119-0.887,0.128-1.344l-33.581-14.738l-39.698,55.569v33.645c0.055,45.421,36.863,82.229,82.284,82.284
				c2.661,0,5.275-0.155,7.872-0.402c0.942-0.091,1.856-0.256,2.789-0.375c1.636-0.21,3.255-0.43,4.855-0.741
				c1.106-0.21,2.185-0.475,3.273-0.731c1.399-0.329,2.779-0.667,4.151-1.07c1.115-0.329,2.231-0.686,3.328-1.061
				c1.307-0.448,2.606-0.923,3.886-1.426c1.07-0.421,2.13-0.85,3.172-1.317c1.326-0.585,2.615-1.225,3.895-1.874
				c0.933-0.475,1.874-0.933,2.789-1.445c1.49-0.832,2.935-1.728,4.361-2.651c0.649-0.411,1.317-0.795,1.947-1.225
				c4.224-2.88,8.164-6.144,11.785-9.746c0.137-0.137,0.256-0.283,0.393-0.421c1.655-1.664,3.227-3.401,4.736-5.211
				c0.283-0.329,0.539-0.686,0.814-1.024c1.326-1.646,2.597-3.328,3.794-5.074c0.311-0.448,0.594-0.905,0.896-1.353
				c1.106-1.673,2.148-3.392,3.136-5.156c0.302-0.53,0.594-1.07,0.878-1.609c0.914-1.728,1.755-3.502,2.551-5.294
				c0.265-0.603,0.539-1.198,0.786-1.801c0.75-1.801,1.408-3.657,2.03-5.522c0.21-0.613,0.43-1.216,0.622-1.838
				c0.622-2.048,1.143-4.133,1.609-6.245c0.101-0.448,0.229-0.887,0.32-1.344c4.672-23.012-0.722-46.92-14.811-65.709
				c-3.035-4.032-2.222-9.764,1.819-12.8c4.032-3.035,9.764-2.222,12.8,1.819c13.111,17.389,20.178,38.582,20.114,60.36
				c0,1.81-0.183,3.584-0.274,5.367c27.62-9.518,46.116-35.574,45.969-64.803c0-3.767-0.302-7.524-0.914-11.246
				C492.733,359.679,492.605,359.35,492.541,359.003z"/>
			<path d="M320,229.579c0-5.047-4.096-9.143-9.143-9.143c-5.047,0-9.143,4.096-9.143,9.143c0.009,5.047,4.096,9.134,9.143,9.143
				C315.904,238.721,320,234.625,320,229.579z"/>
			<path d="M320,101.581c0-5.047-4.096-9.143-9.143-9.143c-5.047,0-9.143,4.096-9.143,9.143s4.096,9.143,9.143,9.143
				C315.904,110.714,320,106.628,320,101.581z"/>
			<path d="M374.856,284.435c0-5.047-4.096-9.143-9.143-9.143s-9.143,4.096-9.143,9.143c0.009,5.047,4.096,9.134,9.143,9.143
				C370.76,293.577,374.856,289.482,374.856,284.435z"/>
			<path d="M146.289,412.432c0,5.047,4.096,9.143,9.143,9.143c5.047,0,9.143-4.096,9.143-9.143s-4.096-9.143-9.143-9.143
				C150.385,403.29,146.298,407.386,146.289,412.432z"/>
			<path d="M374.856,357.576c0-5.047-4.096-9.143-9.143-9.143s-9.134,4.096-9.143,9.143c0,5.047,4.096,9.143,9.143,9.143
				S374.856,362.623,374.856,357.576z"/>
		</g>
	</g>
</g>
<g>
</g>
<g>
</g>
<g>
</g>
<g>
</g>
<g>
</g>
<g>
</g>
<g>
</g>
<g>
</g>
<g>
</g>
<g>
</g>
<g>
</g>
<g>
</g>
<g>
</g>
<g>
</g>
<g>
</g>
</svg>
